<svg width="66" height="66" viewBox="0 0 66 66" fill="none" xmlns="http://www.w3.org/2000/svg">
<path fill-rule="evenodd" clip-rule="evenodd" d="M54.875 6.74996C52.4588 6.74996 50.5 8.70871 50.5 11.125C50.5 13.5412 52.4588 15.5 54.875 15.5C57.2913 15.5 59.25 13.5412 59.25 11.125C59.25 8.70871 57.2913 6.74996 54.875 6.74996ZM44.6667 11.125C44.6667 5.48705 49.2371 0.916626 54.875 0.916626C60.5129 0.916626 65.0834 5.48705 65.0834 11.125C65.0834 16.7629 60.5129 21.3333 54.875 21.3333C49.2371 21.3333 44.6667 16.7629 44.6667 11.125Z" fill="#FF6FA0"/>
<path fill-rule="evenodd" clip-rule="evenodd" d="M11.125 50.5C8.70878 50.5 6.75002 52.4587 6.75002 54.875C6.75002 57.2912 8.70878 59.25 11.125 59.25C13.5413 59.25 15.5 57.2912 15.5 54.875C15.5 52.4587 13.5413 50.5 11.125 50.5ZM0.916687 54.875C0.916687 49.2371 5.48711 44.6666 11.125 44.6666C16.7629 44.6666 21.3334 49.2371 21.3334 54.875C21.3334 60.5129 16.7629 65.0833 11.125 65.0833C5.48711 65.0833 0.916687 60.5129 0.916687 54.875Z" fill="#FF6FA0"/>
<path fill-rule="evenodd" clip-rule="evenodd" d="M0.916687 3.83329C0.916687 2.22246 2.22252 0.916626 3.83335 0.916626H18.4167C20.0275 0.916626 21.3334 2.22246 21.3334 3.83329V8.20829H47.5834C49.1942 8.20829 50.5 9.51413 50.5 11.125C50.5 12.7358 49.1942 14.0416 47.5834 14.0416H21.3334V18.4166C21.3334 20.0275 20.0275 21.3333 18.4167 21.3333H14.0417V47.5833C14.0417 49.1941 12.7359 50.5 11.125 50.5C9.51419 50.5 8.20835 49.1941 8.20835 47.5833V21.3333H3.83335C2.22252 21.3333 0.916687 20.0275 0.916687 18.4166V3.83329ZM6.75002 6.74996V15.5H15.5V6.74996H6.75002ZM54.875 15.5C56.4859 15.5 57.7917 16.8058 57.7917 18.4166V44.6666H62.1667C63.7775 44.6666 65.0834 45.9725 65.0834 47.5833V62.1666C65.0834 63.7775 63.7775 65.0833 62.1667 65.0833H47.5834C45.9725 65.0833 44.6667 63.7775 44.6667 62.1666V57.7916H18.4167C16.8059 57.7916 15.5 56.4858 15.5 54.875C15.5 53.2641 16.8059 51.9583 18.4167 51.9583H44.6667V47.5833C44.6667 45.9725 45.9725 44.6666 47.5834 44.6666H51.9584V18.4166C51.9584 16.8058 53.2642 15.5 54.875 15.5ZM50.5 50.5V59.25H59.25V50.5H50.5Z" fill="#FF6FA0"/>
</svg>
