<svg width="1920" height="1309" viewBox="0 0 1920 1309" fill="none" xmlns="http://www.w3.org/2000/svg">
<mask id="mask0_436_23" style="mask-type:alpha" maskUnits="userSpaceOnUse" x="0" y="0" width="1920" height="1309">
<rect width="1920" height="1309" fill="#121212"/>
</mask>
<g mask="url(#mask0_436_23)">
<path d="M2085 140C2085 248.248 1997.25 336 1889 336C1780.75 336 1693 248.248 1693 140C1693 31.7522 1780.75 -56 1889 -56C1997.25 -56 2085 31.7522 2085 140Z" fill="#FF6FA0"/>
<path d="M1619 1361C1619 1469.25 1531.25 1557 1423 1557C1314.75 1557 1227 1469.25 1227 1361C1227 1252.75 1314.75 1165 1423 1165C1531.25 1165 1619 1252.75 1619 1361Z" fill="#FF6FA0"/>
<path d="M202.435 711C202.435 819.248 114.683 907 6.43509 907C-101.813 907 -189.565 819.248 -189.565 711C-189.565 602.752 -101.813 515 6.43509 515C114.683 515 202.435 602.752 202.435 711Z" fill="#FF6FA0"/>
</g>
</svg>
