<svg width="70" height="70" viewBox="0 0 70 70" fill="none" xmlns="http://www.w3.org/2000/svg">
<path fill-rule="evenodd" clip-rule="evenodd" d="M46.6667 26.2499C46.6667 29.3441 45.4375 32.3116 43.2496 34.4995C41.0617 36.6874 38.0942 37.9166 35 37.9166C31.9058 37.9166 28.9384 36.6874 26.7504 34.4995C24.5625 32.3116 23.3333 29.3441 23.3333 26.2499C23.3333 23.1557 24.5625 20.1883 26.7504 18.0003C28.9384 15.8124 31.9058 14.5833 35 14.5833C38.0942 14.5833 41.0617 15.8124 43.2496 18.0003C45.4375 20.1883 46.6667 23.1557 46.6667 26.2499ZM40.8333 26.2499C40.8333 27.797 40.2188 29.2807 39.1248 30.3747C38.0308 31.4687 36.5471 32.0833 35 32.0833C33.4529 32.0833 31.9692 31.4687 30.8752 30.3747C29.7813 29.2807 29.1667 27.797 29.1667 26.2499C29.1667 24.7028 29.7813 23.2191 30.8752 22.1251C31.9692 21.0312 33.4529 20.4166 35 20.4166C36.5471 20.4166 38.0308 21.0312 39.1248 22.1251C40.2188 23.2191 40.8333 24.7028 40.8333 26.2499Z" fill="#FF6FA0"/>
<path fill-rule="evenodd" clip-rule="evenodd" d="M35 2.91663C17.2813 2.91663 2.91667 17.2812 2.91667 35C2.91667 52.7187 17.2813 67.0833 35 67.0833C52.7188 67.0833 67.0833 52.7187 67.0833 35C67.0833 17.2812 52.7188 2.91663 35 2.91663ZM8.75001 35C8.75001 41.0958 10.8296 46.7075 14.315 51.1641C16.7628 47.9497 19.9205 45.3446 23.5417 43.5525C27.1628 41.7604 31.1493 40.8298 35.1896 40.8333C39.1776 40.8295 43.1139 41.7361 46.6986 43.4839C50.2832 45.2317 53.4216 47.7747 55.8746 50.9191C58.4017 47.6046 60.1033 43.736 60.8385 39.6334C61.5736 35.5307 61.3213 31.3119 60.1023 27.3262C58.8833 23.3404 56.7327 19.7022 53.8285 16.7126C50.9243 13.723 47.3499 11.4679 43.4011 10.1339C39.4523 8.8 35.2427 8.42554 31.1204 9.04155C26.9982 9.65755 23.0819 11.2463 19.6956 13.6764C16.3093 16.1064 13.5503 19.3079 11.6469 23.0159C9.74356 26.724 8.75053 30.832 8.75001 35ZM35 61.25C28.974 61.259 23.1299 59.186 18.4567 55.3816C20.3377 52.6888 22.8414 50.4901 25.7547 48.9728C28.6681 47.4555 31.9048 46.6643 35.1896 46.6666C38.4334 46.664 41.631 47.4354 44.5169 48.9166C47.4027 50.3979 49.8936 52.5462 51.7825 55.1833C47.073 59.1112 41.1325 61.2586 35 61.25Z" fill="#FF6FA0"/>
</svg>
