<svg width="70" height="70" viewBox="0 0 70 70" fill="none" xmlns="http://www.w3.org/2000/svg">
<path d="M12.4016 29.1667C11.9121 31.0725 11.6651 33.0324 11.6666 35C11.6666 37.0125 11.9233 38.9667 12.4016 40.8334H20.7083C20.3151 36.9544 20.3151 33.0457 20.7083 29.1667H12.4016ZM14.7875 23.3334H21.63C22.4058 19.7838 23.5258 16.6046 24.8996 13.9592C20.6651 15.9992 17.1419 19.2653 14.7875 23.3334ZM57.5983 29.1667H49.2916C49.6849 33.0457 49.6849 36.9544 49.2916 40.8334H57.5983C58.5803 37.0065 58.5803 32.9936 57.5983 29.1667ZM55.2125 23.3334C52.8581 19.2653 49.3349 15.9992 45.1004 13.9592C46.4771 16.6046 47.5941 19.7838 48.37 23.3334H55.2125ZM26.5766 29.1667C26.3581 31.1035 26.2491 33.051 26.25 35C26.25 36.998 26.3608 38.9521 26.5766 40.8334H43.4233C43.8626 36.9569 43.8626 33.0432 43.4233 29.1667H26.5766ZM27.6208 23.3334H42.3791C41.8484 21.1409 41.0827 19.0121 40.0954 16.9838C38.2637 13.3234 36.3037 11.6667 35 11.6667C33.6933 11.6667 31.7362 13.3234 29.9046 16.9838C28.9858 18.8271 28.2129 20.9709 27.6208 23.3334ZM14.7875 46.6667C17.1419 50.7348 20.6651 54.0009 24.8996 56.0409C23.5229 53.3955 22.4058 50.2163 21.63 46.6667H14.7875ZM55.2125 46.6667H48.37C47.5941 50.2163 46.4741 53.3955 45.1004 56.0409C49.3349 54.0009 52.8581 50.7348 55.2125 46.6667ZM27.6208 46.6667C28.2129 49.0292 28.9858 51.173 29.9046 53.0163C31.7362 56.6767 33.6962 58.3334 35 58.3334C36.3066 58.3334 38.2637 56.6767 40.0954 53.0163C41.0141 51.173 41.7871 49.0292 42.3791 46.6667H27.6208ZM35 64.1667C18.8912 64.1667 5.83331 51.1088 5.83331 35C5.83331 18.8913 18.8912 5.83337 35 5.83337C51.1087 5.83337 64.1666 18.8913 64.1666 35C64.1666 51.1088 51.1087 64.1667 35 64.1667Z" fill="#FF6FA0"/>
</svg>
