<svg width="70" height="70" viewBox="0 0 70 70" fill="none" xmlns="http://www.w3.org/2000/svg">
<path fill-rule="evenodd" clip-rule="evenodd" d="M14.5833 16.7709C13.6164 16.7709 12.6891 17.155 12.0053 17.8387C11.3216 18.5224 10.9375 19.4498 10.9375 20.4167V49.5834C10.9375 50.5503 11.3216 51.4776 12.0053 52.1614C12.6891 52.8451 13.6164 53.2292 14.5833 53.2292H55.4167C56.3836 53.2292 57.3109 52.8451 57.9947 52.1614C58.6784 51.4776 59.0625 50.5503 59.0625 49.5834V20.4167C59.0625 19.4498 58.6784 18.5224 57.9947 17.8387C57.3109 17.155 56.3836 16.7709 55.4167 16.7709H14.5833ZM8.91175 14.7451C10.4159 13.2409 12.4561 12.3959 14.5833 12.3959H55.4167C57.5439 12.3959 59.5841 13.2409 61.0883 14.7451C62.5924 16.2493 63.4375 18.2894 63.4375 20.4167V49.5834C63.4375 51.7106 62.5924 53.7508 61.0883 55.255C59.5841 56.7592 57.5439 57.6042 55.4167 57.6042H14.5833C12.4561 57.6042 10.4159 56.7592 8.91175 55.255C7.40755 53.7508 6.5625 51.7106 6.5625 49.5834V20.4167C6.5625 18.2895 7.40755 16.2493 8.91175 14.7451Z" fill="#FF6FA0"/>
<path fill-rule="evenodd" clip-rule="evenodd" d="M15.3125 23.3334C15.3125 22.1253 16.2919 21.1459 17.5 21.1459H20.4167C21.6248 21.1459 22.6042 22.1253 22.6042 23.3334C22.6042 24.5415 21.6248 25.5209 20.4167 25.5209H17.5C16.2919 25.5209 15.3125 24.5415 15.3125 23.3334Z" fill="#FF6FA0"/>
</svg>
