<svg width="70" height="70" viewBox="0 0 70 70" fill="none" xmlns="http://www.w3.org/2000/svg">
<path d="M64.3467 20.2412C63.998 18.9426 63.3144 17.7584 62.3642 16.8071C61.4141 15.8557 60.2307 15.1706 58.9326 14.8203C54.1543 13.5352 35 13.5352 35 13.5352C35 13.5352 15.8457 13.5352 11.0674 14.8135C9.76869 15.1626 8.58474 15.8474 7.63441 16.7989C6.68409 17.7504 6.00085 18.9352 5.65332 20.2344C4.375 25.0195 4.375 35 4.375 35C4.375 35 4.375 44.9805 5.65332 49.7588C6.35742 52.3975 8.43555 54.4756 11.0674 55.1797C15.8457 56.4648 35 56.4648 35 56.4648C35 56.4648 54.1543 56.4648 58.9326 55.1797C61.5713 54.4756 63.6426 52.3975 64.3467 49.7588C65.625 44.9805 65.625 35 65.625 35C65.625 35 65.625 25.0195 64.3467 20.2412ZM28.916 44.1602V25.8398L44.7754 34.9316L28.916 44.1602Z" fill="#FF6FA0"/>
</svg>
